<svg xmlns="http://www.w3.org/2000/svg" width="38" height="37"><path d="M 33.025 8.546 L 37.719 10.338 C 34.876 16.703 30.768 22.127 25.441 26.699 C 19.618 31.629 12.847 34.946 5.174 36.739 L 2.871 32.167 C 9.913 30.553 16.143 27.55 21.605 23.202 C 26.75 19.034 30.542 14.148 33.025 8.546 Z" fill="hsl(0, 0%, 100%)"></path><path d="M 2.194 10.114 C 6.979 11.235 11.809 13.117 16.639 15.807 L 14.021 20.02 C 10.049 17.734 5.444 15.896 0.118 14.507 Z" fill="hsl(0, 0%, 100%)"></path><path d="M 6.167 0.253 C 11.809 1.733 16.639 3.705 20.657 6.215 L 17.903 10.114 C 14.382 7.963 9.733 6.125 4.045 4.646 Z" fill="hsl(0, 0%, 100%)"></path></svg>