<svg xmlns="http://www.w3.org/2000/svg" width="181" height="35"><path d="M 0.725 22.205 C 0.725 19.125 3 17.375 5.87 16.955 L 9.965 16.325 C 10.91 16.185 11.225 15.73 11.225 15.135 C 11.225 14.12 10.35 13.245 8.67 13.245 C 6.815 13.245 5.8 14.505 5.695 15.8 L 1.075 14.855 C 1.285 12.37 3.595 9.08 8.705 9.08 C 14.34 9.08 16.405 12.23 16.405 15.8 L 16.405 24.305 C 16.405 25.67 16.58 26.825 16.615 27 L 11.82 27 C 11.785 26.86 11.645 26.23 11.645 25.04 C 10.735 26.51 9.055 27.49 6.745 27.49 C 2.93 27.49 0.725 24.97 0.725 22.205 Z M 8.04 23.64 C 9.615 23.64 11.225 22.87 11.225 20.175 L 11.225 19.405 L 7.935 19.93 C 6.815 20.105 5.975 20.63 5.975 21.855 C 5.975 22.765 6.57 23.64 8.04 23.64 Z M 18.45 22.065 L 22.965 21.26 C 23.035 22.45 23.875 23.605 25.695 23.605 C 27.06 23.605 27.725 22.73 27.725 22.1 C 27.725 21.47 27.305 20.945 26.01 20.665 L 24.015 20.21 C 20.305 19.405 18.835 17.305 18.835 14.855 C 18.835 11.67 21.635 9.08 25.52 9.08 C 30.56 9.08 32.31 12.23 32.485 14.26 L 28.075 15.065 C 27.935 13.91 27.2 12.93 25.59 12.93 C 24.575 12.93 23.7 13.7 23.7 14.435 C 23.7 15.17 24.295 15.59 25.065 15.73 L 27.375 16.185 C 30.98 16.92 32.73 19.09 32.73 21.645 C 32.73 24.62 30.455 27.525 25.8 27.525 C 20.34 27.525 18.59 23.99 18.45 22.065 Z M 43.175 13.98 C 40.97 13.98 39.185 15.555 39.185 18.32 C 39.185 21.085 41.18 22.625 43.245 22.625 C 45.31 22.625 46.465 21.33 46.85 20.035 L 51.54 21.47 C 50.77 24.515 47.9 27.525 43.245 27.525 C 38.065 27.525 33.9 23.745 33.9 18.32 C 33.9 12.895 37.96 9.08 43.07 9.08 C 47.865 9.08 50.665 12.02 51.435 15.135 L 46.675 16.57 C 46.29 15.24 45.38 13.98 43.175 13.98 Z M 59.115 27 L 53.795 27 L 53.795 9.605 L 59.115 9.605 Z M 53.34 4.285 C 53.34 2.57 54.74 1.17 56.42 1.17 C 58.17 1.17 59.57 2.57 59.57 4.285 C 59.57 6 58.17 7.4 56.42 7.4 C 54.74 7.4 53.34 6 53.34 4.285 Z M 68.09 27 L 62.77 27 L 62.77 9.605 L 68.09 9.605 Z M 62.315 4.285 C 62.315 2.57 63.715 1.17 65.395 1.17 C 67.145 1.17 68.545 2.57 68.545 4.285 C 68.545 6 67.145 7.4 65.395 7.4 C 63.715 7.4 62.315 6 62.315 4.285 Z M 77.065 27 L 71.745 27 L 71.745 9.605 L 76.82 9.605 L 76.82 11.6 C 77.695 10.06 79.935 9.08 81.825 9.08 C 84.31 9.08 86.095 10.095 86.97 11.81 C 88.335 9.85 90.015 9.08 92.36 9.08 C 95.65 9.08 98.8 11.005 98.8 15.73 L 98.8 27 L 93.655 27 L 93.655 16.92 C 93.655 15.275 92.78 13.98 90.89 13.98 C 89 13.98 87.985 15.415 87.985 16.955 L 87.985 27 L 82.735 27 L 82.735 16.92 C 82.735 15.275 81.79 13.98 79.935 13.98 C 78.08 13.98 77.065 15.415 77.065 16.99 Z M 110.26 22.625 C 112.29 22.625 114.18 21.225 114.18 18.285 C 114.18 15.345 112.255 13.98 110.26 13.98 C 108.265 13.98 106.34 15.38 106.34 18.285 C 106.34 21.19 108.23 22.625 110.26 22.625 Z M 110.26 9.08 C 115.475 9.08 119.5 12.895 119.5 18.285 C 119.5 23.675 115.44 27.525 110.26 27.525 C 105.08 27.525 101.02 23.675 101.02 18.285 C 101.02 12.895 105.045 9.08 110.26 9.08 Z M 121.93 27.7 L 121.93 9.605 L 127.25 9.605 L 127.25 28.26 C 127.25 31.76 125.045 34.175 121.51 34.175 C 119.655 34.175 118.815 33.79 118.57 33.685 L 118.57 29.275 C 118.815 29.345 119.34 29.485 120.145 29.485 C 121.37 29.485 121.93 28.785 121.93 27.7 Z M 121.475 4.285 C 121.475 2.535 122.875 1.17 124.555 1.17 C 126.305 1.17 127.705 2.57 127.705 4.285 C 127.705 6 126.305 7.4 124.555 7.4 C 122.875 7.4 121.475 6.035 121.475 4.285 Z M 136.26 27 L 130.94 27 L 130.94 9.605 L 136.26 9.605 Z M 130.485 4.285 C 130.485 2.57 131.885 1.17 133.565 1.17 C 135.315 1.17 136.715 2.57 136.715 4.285 C 136.715 6 135.315 7.4 133.565 7.4 C 131.885 7.4 130.485 6 130.485 4.285 Z" fill="#ffffff"></path><path d="M 176.591 8.28 L 180.751 9.88 C 178.231 15.56 174.591 20.4 169.871 24.48 C 164.711 28.88 158.711 31.84 151.911 33.44 L 149.871 29.36 C 156.111 27.92 161.631 25.24 166.471 21.36 C 171.031 17.64 174.391 13.28 176.591 8.28 Z" fill="#ffffff"></path><path d="M 149.271 9.68 C 153.511 10.68 157.791 12.36 162.071 14.76 L 159.751 18.52 C 156.231 16.48 152.151 14.84 147.431 13.6 Z" fill="#ffffff"></path><path d="M 152.791 0.88 C 157.791 2.2 162.071 3.96 165.631 6.2 L 163.191 9.68 C 160.071 7.76 155.951 6.12 150.911 4.8 Z" fill="#ffffff"></path></svg>